<?xml version="1.0" encoding="utf-8"?>
<!-- Generator: Adobe Illustrator 16.0.0, SVG Export Plug-In . SVG Version: 6.00 Build 0)  -->
<!DOCTYPE svg PUBLIC "-//W3C//DTD SVG 1.1//EN" "http://www.w3.org/Graphics/SVG/1.1/DTD/svg11.dtd">
<svg version="1.1" id="Layer_1" xmlns="http://www.w3.org/2000/svg" xmlns:xlink="http://www.w3.org/1999/xlink" x="0px" y="0px"
	 width="100px" height="100px" viewBox="0 0 100 100" enable-background="new 0 0 100 100" xml:space="preserve">
<g>
	<g>
		<path fill="#BF12FF" d="M62.486,44.6c2.77,0,5.015-2.246,5.015-5.016s-2.245-5.016-5.015-5.016c-2.771,0-5.016,2.245-5.016,5.016
			C57.471,42.354,59.715,44.6,62.486,44.6z M40.109,44.6c2.77,0,5.016-2.246,5.016-5.016s-2.245-5.016-5.016-5.016
			s-5.016,2.245-5.016,5.016C35.093,42.354,37.338,44.6,40.109,44.6z M51.297,12.963c-20.456,0-37.038,16.583-37.038,37.037
			s16.582,37.037,37.038,37.037c20.454,0,37.037-16.582,37.037-37.037S71.75,12.963,51.297,12.963z M51.297,80.867
			c-17.046,0-30.865-13.818-30.865-30.865c0-17.046,13.819-30.866,30.865-30.866s30.865,13.819,30.865,30.865
			S68.344,80.867,51.297,80.867z M51.297,54.631c-15.041,0-17.361,14.662-17.361,14.662h6.559c0,0,1.543-8.488,10.803-8.488
			c9.261,0,10.804,8.488,10.804,8.488h6.559C68.658,69.293,66.338,54.631,51.297,54.631z"/>
	</g>
</g>
<g>
	<path fill="#BF12FF" d="M66.729,46.73c0.234,0,0.444,0.065,0.63,0.195s0.278,0.273,0.278,0.429c0,0.098-0.062,0.212-0.186,0.342
		c-0.424,0.424-0.718,0.777-0.884,1.061s-0.249,0.57-0.249,0.863c0,0.209,0.107,0.397,0.322,0.566
		c0.424,0.326,0.719,0.639,0.889,0.938c0.17,0.3,0.254,0.654,0.254,1.064c0,0.639-0.205,1.171-0.615,1.598
		c-0.41,0.426-0.924,0.639-1.543,0.639c-0.689,0-1.256-0.27-1.699-0.811c-0.391-0.481-0.586-1.051-0.586-1.709
		c0-1.568,0.758-3.105,2.275-4.609C65.986,46.925,66.357,46.736,66.729,46.73z"/>
</g>
</svg>
