<?xml version="1.0" encoding="utf-8"?>
<!-- Generator: Adobe Illustrator 16.0.0, SVG Export Plug-In . SVG Version: 6.00 Build 0)  -->
<!DOCTYPE svg PUBLIC "-//W3C//DTD SVG 1.1//EN" "http://www.w3.org/Graphics/SVG/1.1/DTD/svg11.dtd">
<svg version="1.1" id="Layer_1" xmlns="http://www.w3.org/2000/svg" xmlns:xlink="http://www.w3.org/1999/xlink" x="0px" y="0px"
	 width="583.044px" height="98.274px" viewBox="0 0 583.044 98.274" enable-background="new 0 0 583.044 98.274"
	 xml:space="preserve">
<g>
	<g>
		<path d="M30.153,43.812v13.019c0,2.211,0.384,3.729,1.152,4.555c0.768,0.826,2.42,1.239,4.957,1.239V66.5H11.584v-3.875
			c2.49,0,4.147-0.389,4.974-1.169c0.826-0.779,1.239-2.321,1.239-4.625V28.839c0-2.234-0.39-3.758-1.169-4.572
			c-0.78-0.814-2.46-1.222-5.043-1.222V19.17h24.677v3.875c-2.467,0-4.101,0.401-4.904,1.204c-0.803,0.803-1.205,2.333-1.205,4.59
			v10.61h19.441v-10.61c0-2.187-0.378-3.7-1.134-4.538c-0.756-0.837-2.379-1.256-4.869-1.256V19.17h24.607v3.875
			c-2.513,0-4.183,0.384-5.009,1.152c-0.826,0.768-1.239,2.315-1.239,4.642v27.992c0,2.257,0.395,3.787,1.187,4.59
			c0.791,0.803,2.478,1.204,5.061,1.204V66.5H43.591v-3.875c2.443,0,4.054-0.407,4.834-1.221c0.779-0.814,1.169-2.339,1.169-4.573
			V43.812H30.153z"/>
		<path d="M92.56,63.463c-1.699,1.234-3.473,2.159-5.323,2.775c-1.85,0.616-3.787,0.925-5.811,0.925
			c-2.676,0-4.683-0.605-6.021-1.815c-1.338-1.209-2.007-2.71-2.007-4.502c0-2.536,1.337-4.782,4.014-6.736
			c2.676-1.955,7.516-4.119,14.52-6.492v-2.583c0-1.838-0.442-3.02-1.327-3.543s-1.932-0.785-3.141-0.785
			c-2.932,0-4.561,1.07-4.886,3.211c-0.233,1.466-0.698,2.531-1.396,3.194c-0.698,0.663-1.78,0.995-3.246,0.995
			c-1.326,0-2.379-0.354-3.159-1.064c-0.78-0.709-1.169-1.542-1.169-2.496c0-2.164,1.431-4.002,4.293-5.515
			c2.862-1.513,6.689-2.269,11.483-2.269c2.675,0,4.915,0.163,6.719,0.489c1.803,0.326,3.257,0.931,4.363,1.815
			c1.105,0.885,1.838,1.815,2.199,2.792c0.361,0.977,0.541,2.303,0.541,3.979V59.1c0,2.001,0.605,3.001,1.815,3.001
			c1.047,0,1.71-0.651,1.99-1.955h2.897c-0.07,2.397-0.948,4.166-2.635,5.306c-1.688,1.14-3.706,1.71-6.056,1.71
			C96.935,67.163,94.049,65.93,92.56,63.463z M91.932,59.693v-8.167c-3.235,1.35-5.346,2.571-6.335,3.665
			c-0.989,1.094-1.483,2.222-1.483,3.386c0,0.884,0.291,1.681,0.873,2.391c0.581,0.71,1.349,1.064,2.304,1.064
			c0.837,0,1.64-0.197,2.408-0.593C90.466,61.043,91.21,60.461,91.932,59.693z"/>
		<path d="M124.497,66.988l-9.982-19.791c-1.304-2.559-2.257-4.13-2.862-4.712c-0.605-0.581-1.478-0.873-2.618-0.873v-3.7h18.673
			v3.7c-2.164,0-3.246,0.466-3.246,1.396c0,0.233,0.291,0.907,0.873,2.024l6.108,12.251l6.317-12.74
			c0.326-0.675,0.489-1.164,0.489-1.466c0-0.978-0.978-1.466-2.932-1.466v-3.7h10.96v3.7c-1.094,0-1.955,0.314-2.583,0.942
			c-0.628,0.628-1.734,2.513-3.316,5.654l-9.494,18.778H124.497z"/>
		<path d="M159.822,51.875c0,3.793,0.646,6.644,1.937,8.551c1.292,1.908,3.229,2.862,5.812,2.862c2.745,0,5.27-1.396,7.574-4.188
			l3.246,1.955c-1.326,1.908-3.229,3.485-5.707,4.729c-2.478,1.244-5.218,1.867-8.22,1.867c-4.607,0-8.551-1.402-11.833-4.206
			c-3.281-2.804-4.921-6.59-4.921-11.361c0-4.77,1.588-8.517,4.765-11.239c3.176-2.723,6.998-4.084,11.466-4.084
			c4.49,0,8.173,1.251,11.047,3.752c2.874,2.501,4.311,6.289,4.311,11.361H159.822z M159.787,48.35h8.831
			c-0.14-5.142-1.641-7.713-4.502-7.713c-1.443,0-2.525,0.64-3.246,1.919C160.147,43.836,159.787,45.767,159.787,48.35z"/>
		<path d="M215.151,63.463c-1.699,1.234-3.473,2.159-5.323,2.775c-1.85,0.616-3.787,0.925-5.811,0.925
			c-2.676,0-4.683-0.605-6.021-1.815c-1.338-1.209-2.007-2.71-2.007-4.502c0-2.536,1.337-4.782,4.014-6.736
			c2.676-1.955,7.516-4.119,14.52-6.492v-2.583c0-1.838-0.442-3.02-1.327-3.543s-1.932-0.785-3.141-0.785
			c-2.932,0-4.561,1.07-4.886,3.211c-0.233,1.466-0.698,2.531-1.396,3.194c-0.698,0.663-1.78,0.995-3.246,0.995
			c-1.326,0-2.379-0.354-3.159-1.064c-0.78-0.709-1.169-1.542-1.169-2.496c0-2.164,1.431-4.002,4.293-5.515
			c2.862-1.513,6.689-2.269,11.483-2.269c2.675,0,4.915,0.163,6.719,0.489c1.803,0.326,3.257,0.931,4.363,1.815
			c1.105,0.885,1.838,1.815,2.199,2.792c0.361,0.977,0.541,2.303,0.541,3.979V59.1c0,2.001,0.605,3.001,1.815,3.001
			c1.047,0,1.71-0.651,1.99-1.955h2.897c-0.07,2.397-0.948,4.166-2.635,5.306c-1.688,1.14-3.706,1.71-6.056,1.71
			C219.525,67.163,216.64,65.93,215.151,63.463z M214.523,59.693v-8.167c-3.235,1.35-5.346,2.571-6.335,3.665
			c-0.989,1.094-1.483,2.222-1.483,3.386c0,0.884,0.291,1.681,0.873,2.391c0.581,0.71,1.349,1.064,2.304,1.064
			c0.837,0,1.64-0.197,2.408-0.593C213.057,61.043,213.801,60.461,214.523,59.693z"/>
		<path d="M279.272,48.489V44.65h22.163v3.839c-1.768,0.303-2.92,0.82-3.455,1.553s-0.803,2.251-0.803,4.555v9.913
			c-0.744-0.046-1.35-0.07-1.814-0.07c-2.305,0-6.202,0.593-11.693,1.78c-3.933,0.838-7.225,1.256-9.878,1.256
			c-7.19,0-13.007-2.402-17.452-7.208c-4.444-4.804-6.667-10.406-6.667-16.806c0-6.864,2.344-12.769,7.033-17.713
			c4.688-4.944,10.5-7.417,17.434-7.417c5.654,0,10.622,1.803,14.904,5.41c0.745-1.536,1.199-3.176,1.361-4.921h3.734l0.42,16.544
			h-3.805c-2.397-8.051-7.074-12.077-14.031-12.077c-4.142,0-7.301,1.524-9.477,4.572c-2.176,3.049-3.263,8.167-3.263,15.357
			c0,5.05,0.319,8.889,0.96,11.519c0.64,2.629,1.873,4.666,3.7,6.108c1.826,1.443,4.194,2.164,7.103,2.164
			c2.583,0,4.724-0.559,6.422-1.675c1.698-1.117,2.548-3.316,2.548-6.597v-1.746C284.717,50.223,282.902,48.722,279.272,48.489z"/>
		<path d="M305.555,52.119c0-4.793,1.698-8.551,5.097-11.273c3.396-2.723,7.504-4.084,12.32-4.084c4.7,0,8.796,1.321,12.286,3.962
			s5.235,6.452,5.235,11.431c0,4.724-1.71,8.487-5.131,11.291c-3.42,2.804-7.562,4.206-12.426,4.206
			c-4.746,0-8.83-1.332-12.251-3.997C307.266,60.991,305.555,57.146,305.555,52.119z M317.526,51.771
			c0,4.467,0.413,7.591,1.239,9.372c0.826,1.78,2.263,2.67,4.311,2.67c1.652,0,2.973-0.745,3.962-2.234
			c0.988-1.489,1.483-4.665,1.483-9.529c0-4.42-0.442-7.417-1.326-8.987c-0.885-1.571-2.281-2.356-4.188-2.356
			c-1.513,0-2.805,0.669-3.874,2.007C318.062,44.051,317.526,47.07,317.526,51.771z"/>
		<path d="M345.763,52.119c0-4.793,1.698-8.551,5.097-11.273c3.396-2.723,7.504-4.084,12.32-4.084c4.7,0,8.796,1.321,12.286,3.962
			s5.235,6.452,5.235,11.431c0,4.724-1.71,8.487-5.131,11.291c-3.42,2.804-7.562,4.206-12.426,4.206
			c-4.746,0-8.83-1.332-12.251-3.997C347.474,60.991,345.763,57.146,345.763,52.119z M357.734,51.771
			c0,4.467,0.413,7.591,1.239,9.372c0.826,1.78,2.263,2.67,4.311,2.67c1.652,0,2.973-0.745,3.962-2.234
			c0.988-1.489,1.483-4.665,1.483-9.529c0-4.42-0.442-7.417-1.326-8.987c-0.885-1.571-2.281-2.356-4.188-2.356
			c-1.513,0-2.805,0.669-3.874,2.007C358.27,44.051,357.734,47.07,357.734,51.771z"/>
		<path d="M410.229,62.521c-1.629,1.536-3.356,2.693-5.183,3.473c-1.827,0.779-3.752,1.169-5.776,1.169
			c-3.747,0-6.865-1.204-9.354-3.612c-2.49-2.408-3.734-6.079-3.734-11.012c0-5.468,1.396-9.464,4.188-11.989
			c2.792-2.524,6.107-3.787,9.947-3.787c2.117,0,4.002,0.314,5.654,0.942c1.651,0.628,3.071,1.571,4.258,2.827V29.258
			c0-1.745-0.273-2.95-0.82-3.613s-1.82-0.995-3.821-0.995v-3.735l15.916-2.583v38.812c0,1.978,0.331,3.252,0.994,3.822
			c0.663,0.57,1.938,0.855,3.822,0.855v3.944c-6.795,0.256-11.879,0.722-15.253,1.396C410.509,65.953,410.229,64.405,410.229,62.521
			z M410.229,57.704V44.72c-1-0.977-2.007-1.704-3.019-2.181c-1.013-0.477-2.02-0.716-3.02-0.716c-2.024,0-3.543,0.803-4.555,2.408
			c-1.013,1.606-1.519,4.026-1.519,7.26c0,3.49,0.459,6.108,1.379,7.853c0.919,1.745,2.298,2.618,4.136,2.618
			c1.257,0,2.519-0.389,3.787-1.169C408.688,60.014,409.624,58.984,410.229,57.704z"/>
		<path d="M442.938,66.5v-3.875c2.49,0,4.142-0.389,4.957-1.169c0.813-0.779,1.222-2.321,1.222-4.625V28.804
			c0-2.233-0.385-3.757-1.152-4.572c-0.768-0.814-2.443-1.222-5.026-1.222V19.17l5.689-0.209c5.725-0.232,10.215-0.349,13.473-0.349
			c5.445,0,9.872,0.314,13.281,0.942c3.408,0.628,6.632,2.007,9.668,4.136c3.036,2.129,5.375,4.887,7.016,8.272
			c1.641,3.385,2.461,7.115,2.461,11.187c0,4.165-0.867,7.888-2.601,11.169c-1.733,3.281-4.066,5.898-6.998,7.853
			s-5.969,3.165-9.109,3.63c-3.142,0.466-8.424,0.698-15.847,0.698H442.938z M461.507,22.87v32.6c0,2.094,0.099,3.502,0.296,4.223
			c0.198,0.722,0.722,1.338,1.571,1.85c0.849,0.512,2.158,0.768,3.927,0.768c4.374,0,7.649-1.605,9.825-4.816
			c2.175-3.211,3.264-8.016,3.264-14.415c0-5.166-0.803-9.278-2.409-12.338c-1.605-3.06-3.688-5.136-6.247-6.23
			C469.173,23.417,465.765,22.87,461.507,22.87z"/>
		<path d="M517.948,63.463c-1.698,1.234-3.473,2.159-5.322,2.775c-1.851,0.616-3.787,0.925-5.812,0.925
			c-2.677,0-4.684-0.605-6.021-1.815s-2.007-2.71-2.007-4.502c0-2.536,1.338-4.782,4.015-6.736c2.675-1.955,7.516-4.119,14.52-6.492
			v-2.583c0-1.838-0.442-3.02-1.326-3.543c-0.885-0.523-1.932-0.785-3.142-0.785c-2.932,0-4.561,1.07-4.887,3.211
			c-0.232,1.466-0.698,2.531-1.396,3.194c-0.698,0.663-1.78,0.995-3.246,0.995c-1.326,0-2.38-0.354-3.159-1.064
			c-0.779-0.709-1.169-1.542-1.169-2.496c0-2.164,1.431-4.002,4.293-5.515s6.689-2.269,11.483-2.269
			c2.676,0,4.915,0.163,6.719,0.489c1.803,0.326,3.258,0.931,4.363,1.815c1.104,0.885,1.838,1.815,2.198,2.792
			c0.36,0.977,0.541,2.303,0.541,3.979V59.1c0,2.001,0.605,3.001,1.815,3.001c1.047,0,1.71-0.651,1.989-1.955h2.896
			c-0.069,2.397-0.948,4.166-2.635,5.306c-1.688,1.14-3.706,1.71-6.056,1.71C522.323,67.163,519.438,65.93,517.948,63.463z
			 M517.32,59.693v-8.167c-3.234,1.35-5.347,2.571-6.335,3.665c-0.989,1.094-1.483,2.222-1.483,3.386
			c0,0.884,0.291,1.681,0.872,2.391c0.582,0.71,1.35,1.064,2.304,1.064c0.838,0,1.641-0.197,2.408-0.593
			C515.854,61.043,516.599,60.461,517.32,59.693z"/>
		<path d="M556.606,56.622l4.642-9.843c0.814-1.768,1.222-2.885,1.222-3.351c0-1.233-0.989-1.85-2.967-1.85v-3.665h11.414v3.665
			c-1.374,0.14-2.345,0.57-2.915,1.292s-1.855,3.153-3.856,7.294L552.977,73.34c-2.188,4.561-3.944,7.527-5.271,8.9
			s-3.002,2.06-5.026,2.06c-1.513,0-2.757-0.454-3.734-1.361c-0.978-0.907-1.466-2.024-1.466-3.351c0-2.257,1.57-3.77,4.712-4.538
			c2.908-0.675,4.834-1.431,5.776-2.269c0.942-0.838,1.983-2.501,3.124-4.991l-12.426-21.326l-0.559-1.047
			c-0.931-1.745-1.629-2.798-2.094-3.159c-0.466-0.361-1.269-0.587-2.409-0.681v-3.665h18.534v3.665
			c-1.839,0.07-2.758,0.547-2.758,1.431c0,0.349,0.372,1.199,1.117,2.548L556.606,56.622z"/>
	</g>
	
		<line fill="none" stroke="#000000" stroke-width="3" stroke-linecap="round" stroke-miterlimit="10" x1="12" y1="84.5" x2="524" y2="84.5"/>
	
		<line fill="none" stroke="#000000" stroke-width="3" stroke-linecap="round" stroke-miterlimit="10" x1="558" y1="84.5" x2="573" y2="84.5"/>
	
		<line fill="none" stroke="#000000" stroke-width="3" stroke-linecap="round" stroke-miterlimit="10" x1="81" y1="22.5" x2="242" y2="22.5"/>
	
		<line fill="none" stroke="#000000" stroke-width="3" stroke-linecap="round" stroke-miterlimit="10" x1="303" y1="22.5" x2="390" y2="22.5"/>
	
		<line fill="none" stroke="#000000" stroke-width="3" stroke-linecap="round" stroke-miterlimit="10" x1="499" y1="22.5" x2="573" y2="22.5"/>
</g>
</svg>
