<?xml version="1.0" encoding="utf-8"?>
<!-- Generator: Adobe Illustrator 16.0.0, SVG Export Plug-In . SVG Version: 6.00 Build 0)  -->
<!DOCTYPE svg PUBLIC "-//W3C//DTD SVG 1.1//EN" "http://www.w3.org/Graphics/SVG/1.1/DTD/svg11.dtd">
<svg version="1.1" id="Layer_1" xmlns="http://www.w3.org/2000/svg" xmlns:xlink="http://www.w3.org/1999/xlink" x="0px" y="0px"
	 width="100px" height="100px" viewBox="0 0 100 100" enable-background="new 0 0 100 100" xml:space="preserve">
<g>
	<g>
		<path d="M50,11.083c-20.456,0-37.038,16.582-37.038,37.037c0,20.456,16.582,37.037,37.038,37.037
			c20.455,0,37.037-16.581,37.037-37.037C87.037,27.665,70.455,11.083,50,11.083z M50,78.986c-17.046,0-30.865-13.818-30.865-30.865
			S32.954,17.256,50,17.256s30.863,13.818,30.863,30.865S67.047,78.986,50,78.986z M38.812,42.72c2.77,0,5.015-2.246,5.015-5.016
			c0-2.771-2.246-5.017-5.015-5.017c-2.771,0-5.016,2.246-5.016,5.017C33.796,40.474,36.042,42.72,38.812,42.72z M61.189,32.688
			c-2.771,0-5.017,2.246-5.017,5.016c0,2.771,2.245,5.016,5.017,5.016c2.77,0,5.016-2.245,5.016-5.016
			C66.205,34.934,63.96,32.688,61.189,32.688z M33.796,64.904h32.408v-6.173H33.796V64.904z"/>
	</g>
</g>
</svg>
