<?xml version="1.0" encoding="utf-8"?>
<!-- Generator: Adobe Illustrator 16.0.0, SVG Export Plug-In . SVG Version: 6.00 Build 0)  -->
<!DOCTYPE svg PUBLIC "-//W3C//DTD SVG 1.1//EN" "http://www.w3.org/Graphics/SVG/1.1/DTD/svg11.dtd">
<svg version="1.1" id="Layer_1" xmlns="http://www.w3.org/2000/svg" xmlns:xlink="http://www.w3.org/1999/xlink" x="0px" y="0px"
	 width="100px" height="100px" viewBox="0 0 100 100" enable-background="new 0 0 100 100" xml:space="preserve">
<g>
	<g>
		<path fill="#BF12FF" d="M62.486,44.6c2.77,0,5.015-2.246,5.015-5.016c0-2.77-2.245-5.016-5.015-5.016
			c-2.771,0-5.016,2.245-5.016,5.016C57.471,42.354,59.715,44.6,62.486,44.6z M40.109,44.6c2.77,0,5.016-2.246,5.016-5.016
			c0-2.77-2.245-5.016-5.016-5.016s-5.016,2.245-5.016,5.016C35.093,42.354,37.338,44.6,40.109,44.6z M51.297,12.963
			c-20.456,0-37.038,16.583-37.038,37.037s16.582,37.037,37.038,37.037c20.454,0,37.037-16.582,37.037-37.037
			S71.75,12.963,51.297,12.963z M51.297,80.867c-17.046,0-30.865-13.818-30.865-30.865c0-17.046,13.819-30.866,30.865-30.866
			s30.865,13.819,30.865,30.865C82.162,67.047,68.344,80.867,51.297,80.867z M51.297,54.631c-15.041,0-17.361,14.662-17.361,14.662
			h6.559c0,0,1.543-8.488,10.803-8.488c9.26,0,10.803,8.488,10.803,8.488h6.559C68.658,69.293,66.338,54.631,51.297,54.631z"/>
	</g>
</g>
</svg>
