<?xml version="1.0" encoding="utf-8"?>
<!-- Generator: Adobe Illustrator 16.0.0, SVG Export Plug-In . SVG Version: 6.00 Build 0)  -->
<!DOCTYPE svg PUBLIC "-//W3C//DTD SVG 1.1//EN" "http://www.w3.org/Graphics/SVG/1.1/DTD/svg11.dtd">
<svg version="1.1" id="Your_Icon" xmlns="http://www.w3.org/2000/svg" xmlns:xlink="http://www.w3.org/1999/xlink" x="0px" y="0px"
	 width="100px" height="100px" viewBox="0 0 100 100" enable-background="new 0 0 100 100" xml:space="preserve">
<g>
	<path fill="#FCEC24" d="M50.297,13c-20.423,0-37.038,16.615-37.038,37.037c0,20.423,16.615,37.037,37.038,37.037
		c20.422,0,37.037-16.614,37.037-37.037C87.334,29.615,70.719,13,50.297,13z M50.297,79.477c-16.234,0-29.44-13.206-29.44-29.439
		s13.206-29.439,29.44-29.439c16.232,0,29.438,13.206,29.438,29.439S66.529,79.477,50.297,79.477z"/>
	<circle fill="#FCEC24" cx="41.274" cy="39.648" r="4.749"/>
	<circle fill="#FCEC24" cx="59.541" cy="39.648" r="4.749"/>
	<path fill="#FCEC24" d="M66.265,52.293c-1.104,7.836-7.833,13.889-15.968,13.889c-8.135,0-14.865-6.053-15.969-13.889h-5.757
		C29.702,63.281,39.014,71.88,50.297,71.88c11.281,0,20.594-8.599,21.725-19.587H66.265z"/>
</g>
</svg>
