<?xml version="1.0" encoding="utf-8"?>
<!-- Generator: Adobe Illustrator 16.0.0, SVG Export Plug-In . SVG Version: 6.00 Build 0)  -->
<!DOCTYPE svg PUBLIC "-//W3C//DTD SVG 1.1//EN" "http://www.w3.org/Graphics/SVG/1.1/DTD/svg11.dtd">
<svg version="1.1" id="Layer_1" xmlns="http://www.w3.org/2000/svg" xmlns:xlink="http://www.w3.org/1999/xlink" x="0px" y="0px"
	 width="183.044px" height="177.92px" viewBox="0 0 183.044 177.92" enable-background="new 0 0 183.044 177.92"
	 xml:space="preserve">
<g>
	<path fill="#FFF657" d="M90.853,43.39c-2.791,0-5.049-2.258-5.049-5.049V9.73c0-2.787,2.258-5.049,5.049-5.049
		c2.788,0,5.049,2.262,5.049,5.049v28.613C95.902,41.132,93.641,43.39,90.853,43.39z"/>
	<path fill="#FFF657" d="M90.853,171.298c-2.791,0-5.049-2.26-5.049-5.049V137.64c0-2.789,2.258-5.051,5.049-5.051
		c2.788,0,5.049,2.262,5.049,5.051v28.611C95.902,169.039,93.641,171.298,90.853,171.298z"/>
	<path fill="#FFF657" d="M169.114,93.035h-28.612c-2.789,0-5.051-2.256-5.051-5.047c0-2.787,2.262-5.049,5.051-5.049h28.612
		c2.788,0,5.049,2.262,5.049,5.049C174.162,90.779,171.9,93.035,169.114,93.035z"/>
	<path fill="#FFF657" d="M41.203,93.035H12.59c-2.787,0-5.047-2.256-5.047-5.045s2.26-5.049,5.047-5.049h28.612
		c2.788,0,5.049,2.26,5.049,5.049S43.991,93.035,41.203,93.035z"/>
	<path fill="#FFF657" d="M146.19,148.378c-1.292,0-2.584-0.494-3.569-1.48l-20.231-20.229c-1.971-1.973-1.971-5.168,0-7.139
		s5.167-1.971,7.14,0l20.23,20.229c1.973,1.971,1.973,5.17,0,7.139C148.777,147.884,147.482,148.378,146.19,148.378z"/>
	<path fill="#FFF657" d="M55.75,57.931c-1.292,0-2.584-0.492-3.57-1.477L31.947,36.222c-1.973-1.971-1.973-5.164,0-7.137
		s5.17-1.973,7.143,0l20.23,20.229c1.972,1.971,1.972,5.168,0,7.141C58.333,57.439,57.041,57.931,55.75,57.931z"/>
	<path fill="#FFF657" d="M35.518,148.382c-1.294,0-2.585-0.494-3.571-1.48c-1.973-1.971-1.973-5.168,0-7.139l20.23-20.23
		c1.973-1.973,5.167-1.973,7.14,0c1.971,1.971,1.971,5.164,0,7.137l-20.23,20.232C38.103,147.888,36.81,148.382,35.518,148.382z"/>
	<path fill="#FFF657" d="M125.964,57.939c-1.292,0-2.587-0.494-3.572-1.48c-1.971-1.971-1.971-5.17,0-7.141l20.231-20.232
		c1.973-1.973,5.169-1.973,7.14,0c1.972,1.973,1.972,5.17,0,7.139l-20.231,20.232C128.545,57.445,127.255,57.939,125.964,57.939z"/>
	<path fill="#FFF657" d="M90.853,120.908c-18.148,0-32.916-14.768-32.916-32.918c0-18.148,14.768-32.918,32.916-32.918
		c18.15,0,32.916,14.77,32.916,32.918C123.769,106.14,109.003,120.908,90.853,120.908z M90.853,65.171
		c-12.584,0-22.819,10.236-22.819,22.818s10.235,22.82,22.819,22.82s22.817-10.238,22.817-22.82S103.437,65.171,90.853,65.171z"/>
</g>
</svg>
