<?xml version="1.0" encoding="utf-8"?>
<!-- Generator: Adobe Illustrator 16.0.0, SVG Export Plug-In . SVG Version: 6.00 Build 0)  -->
<!DOCTYPE svg PUBLIC "-//W3C//DTD SVG 1.1//EN" "http://www.w3.org/Graphics/SVG/1.1/DTD/svg11.dtd">
<svg version="1.1" id="Your_Icon" xmlns="http://www.w3.org/2000/svg" xmlns:xlink="http://www.w3.org/1999/xlink" x="0px" y="0px"
	 width="100px" height="100px" viewBox="0 0 100 100" enable-background="new 0 0 100 100" xml:space="preserve">
<path fill="#FCEC24" d="M50.297,13c-20.423,0-37.038,16.615-37.038,37.037c0,20.423,16.615,37.037,37.038,37.037
	c20.422,0,37.037-16.614,37.037-37.037C87.334,29.615,70.719,13,50.297,13z M50.297,79.477c-16.234,0-29.44-13.205-29.44-29.438
	c0-16.233,13.206-29.439,29.44-29.439c16.232,0,29.438,13.206,29.438,29.439C79.734,66.271,66.529,79.477,50.297,79.477z"/>
<g>
	<path fill="#FCEC24" d="M38.397,34.288c-4.154,0-7.607,3.114-8.033,7.243l-0.114,1.103h3.842l0.121-0.86
		c0.292-2.075,2.091-3.639,4.183-3.639c2.093,0,3.891,1.564,4.183,3.639l0.121,0.861h3.843l-0.114-1.103
		C46.005,37.402,42.551,34.288,38.397,34.288z"/>
	<path fill="#FCEC24" d="M70.229,41.531c-0.427-4.129-3.88-7.243-8.034-7.243s-7.607,3.114-8.032,7.243l-0.113,1.103h3.842
		l0.121-0.86c0.293-2.075,2.091-3.639,4.183-3.639c2.093,0,3.892,1.564,4.184,3.639l0.121,0.86h3.843L70.229,41.531z"/>
</g>
<path fill="none" stroke="#FCEC24" stroke-width="4" stroke-miterlimit="10" d="M32.234,53.25h36.125
	c0,0-2.504,17.375-18.182,17.375S32.234,53.25,32.234,53.25z"/>
</svg>
