<?xml version="1.0" encoding="utf-8"?>
<!-- Generator: Adobe Illustrator 16.0.0, SVG Export Plug-In . SVG Version: 6.00 Build 0)  -->
<!DOCTYPE svg PUBLIC "-//W3C//DTD SVG 1.1//EN" "http://www.w3.org/Graphics/SVG/1.1/DTD/svg11.dtd">
<svg version="1.1" id="Layer_1" xmlns="http://www.w3.org/2000/svg" xmlns:xlink="http://www.w3.org/1999/xlink" x="0px" y="0px"
	 width="109.593px" height="99.159px" viewBox="0 0 109.593 99.159" enable-background="new 0 0 109.593 99.159"
	 xml:space="preserve">
<g>
	<ellipse fill="#1DFFD4" cx="55.052" cy="51.229" rx="12.689" ry="11.517"/>
	<path fill="#1DFFD4" d="M96.86,41.091c0.521-0.657,0.409-1.61-0.247-2.131c-0.659-0.52-1.612-0.409-2.132,0.247
		c-1.175,1.486-4.624,5.644-6.424,7.033c-0.024,0.018-0.043,0.042-0.066,0.062c-1.578-1.525-3.611-3.345-6.026-5.203
		c2.348-1.795,5.566-6.432,6.251-7.439c0.471-0.693,0.292-1.636-0.401-2.107c-0.692-0.471-1.635-0.293-2.108,0.401
		c-1.988,2.925-4.8,6.41-5.876,6.938c-0.169,0.083-0.314,0.197-0.436,0.327c-2.006-1.393-4.218-2.749-6.591-3.961
		c1.258-1.55,2.726-4.437,4.386-8.637c0.308-0.779-0.073-1.661-0.853-1.969c-0.782-0.308-1.662,0.073-1.969,0.853
		c-1.369,3.46-3.369,7.544-4.203,8.197c-0.109,0.048-0.206,0.109-0.294,0.177c-2.55-1.097-5.256-1.989-8.085-2.56
		c1.161-3.594,2.136-9.164,2.182-9.433c0.144-0.826-0.409-1.611-1.234-1.754c-0.834-0.146-1.613,0.41-1.754,1.236
		c-0.012,0.067-1.086,6.202-2.23,9.464c-1.213-0.137-2.446-0.209-3.696-0.209c-1.498,0-2.97,0.115-4.417,0.309
		c-0.019-0.115-0.048-0.231-0.096-0.343c-1-2.362-1.412-7.317-1.486-9.027c-0.037-0.836-0.772-1.497-1.582-1.45
		c-0.838,0.036-1.486,0.744-1.451,1.581c0.012,0.266,0.292,6.344,1.606,9.767c-2.603,0.577-5.094,1.428-7.455,2.447
		c-0.098-0.079-0.205-0.151-0.327-0.205c-0.834-0.653-2.834-4.737-4.203-8.197c-0.307-0.78-1.189-1.161-1.969-0.853
		c-0.779,0.308-1.161,1.19-0.852,1.969c1.673,4.234,3.15,7.131,4.416,8.671c-2.37,1.215-4.578,2.571-6.581,3.965
		c-0.128-0.148-0.289-0.274-0.476-0.366c-1.073-0.528-3.886-4.013-5.877-6.939c-0.47-0.694-1.414-0.872-2.107-0.401
		c-0.693,0.471-0.872,1.415-0.401,2.107c0.689,1.014,3.948,5.708,6.301,7.475c-2.183,1.68-4.051,3.329-5.551,4.755
		c-1.872-1.635-4.914-5.307-6.005-6.684c-0.519-0.656-1.475-0.767-2.131-0.247c-0.658,0.521-0.767,1.474-0.247,2.131
		c0.165,0.209,3.729,4.694,6.228,6.939c-1.167,1.213-1.856,2.028-1.983,2.182c-0.452,0.541-0.452,1.325,0,1.867
		c0.129,0.156,0.845,1.002,2.053,2.253c-2.161,1.766-4.099,3.797-4.188,3.891c-0.575,0.608-0.549,1.568,0.059,2.145
		c0.294,0.278,0.668,0.416,1.043,0.416c0.401,0,0.803-0.159,1.102-0.473c0.021-0.022,2.05-2.15,4.154-3.831
		c1.506,1.426,3.37,3.068,5.549,4.739c-2.145,1.393-4.118,4.183-4.354,4.527c-0.477,0.688-0.304,1.633,0.385,2.11
		c0.263,0.182,0.563,0.271,0.863,0.271c0.479,0,0.953-0.228,1.247-0.653c0.821-1.184,2.595-3.292,3.861-3.916
		c0.23-0.112,0.412-0.279,0.553-0.472c1.986,1.377,4.173,2.717,6.517,3.918c-1.5,1.592-2.813,4.382-3.401,5.749
		c-0.331,0.769,0.026,1.663,0.795,1.994c0.196,0.083,0.398,0.124,0.599,0.124c0.588,0,1.147-0.344,1.395-0.918
		c1.026-2.386,2.524-4.855,3.117-5.168c0.21-0.078,0.394-0.2,0.542-0.349c2.34,1.003,4.808,1.839,7.385,2.407
		c-1.351,3.275-1.645,6.677-1.656,6.822c-0.068,0.835,0.553,1.565,1.387,1.635c0.043,0.004,0.085,0.005,0.126,0.005
		c0.782,0,1.445-0.6,1.511-1.391c0.001-0.032,0.277-3.19,1.49-6.052c0.069-0.164,0.102-0.334,0.113-0.502
		c1.442,0.193,2.908,0.307,4.4,0.307c1.237,0,2.455-0.072,3.658-0.207c1.188,2.956,2.294,6.715,2.306,6.754
		c0.195,0.662,0.799,1.09,1.455,1.09c0.141,0,0.286-0.02,0.427-0.062c0.804-0.236,1.266-1.078,1.03-1.882
		c-0.047-0.159-1.015-3.445-2.152-6.39c2.778-0.561,5.437-1.43,7.946-2.499c0.132,0.117,0.286,0.214,0.465,0.28
		c0.645,0.413,2.118,3.276,3.152,6.128c0.224,0.618,0.807,1,1.426,1c0.172,0,0.346-0.028,0.516-0.091
		c0.789-0.286,1.196-1.154,0.91-1.942c-0.723-1.999-1.994-5.083-3.451-6.784c2.363-1.203,4.565-2.55,6.566-3.935
		c0.138,0.175,0.309,0.324,0.522,0.429c1.141,0.562,2.89,3.131,3.77,4.777c0.272,0.511,0.797,0.803,1.34,0.803
		c0.241,0,0.484-0.058,0.711-0.179c0.74-0.394,1.02-1.312,0.626-2.052c-0.387-0.727-2.268-4.113-4.408-5.641
		c2.415-1.85,4.451-3.668,6.04-5.197c0.047,0.049,0.094,0.1,0.149,0.142c2.115,1.633,4.309,4.88,4.331,4.913
		c0.293,0.436,0.773,0.672,1.26,0.672c0.292,0,0.586-0.084,0.845-0.258c0.695-0.466,0.881-1.409,0.416-2.104
		c-0.099-0.147-2.404-3.56-4.864-5.517c0.965-1.019,1.542-1.7,1.656-1.837c0.452-0.542,0.452-1.326,0-1.867
		c-0.111-0.134-0.659-0.78-1.573-1.749C92.618,46.43,96.684,41.315,96.86,41.091z M55.052,68.752
		c-16.237,0-30.111-13.846-33.58-17.609c3.466-3.764,17.32-17.607,33.58-17.607c16.239,0,30.112,13.847,33.58,17.609
		C85.167,54.909,71.313,68.751,55.052,68.752z"/>
</g>
</svg>
