<?xml version="1.0" encoding="utf-8"?>
<!-- Generator: Adobe Illustrator 16.0.0, SVG Export Plug-In . SVG Version: 6.00 Build 0)  -->
<!DOCTYPE svg PUBLIC "-//W3C//DTD SVG 1.1//EN" "http://www.w3.org/Graphics/SVG/1.1/DTD/svg11.dtd">
<svg version="1.1" id="Layer_1" xmlns="http://www.w3.org/2000/svg" xmlns:xlink="http://www.w3.org/1999/xlink" x="0px" y="0px"
	 width="109.593px" height="99.159px" viewBox="0 0 109.593 99.159" enable-background="new 0 0 109.593 99.159"
	 xml:space="preserve">
<path fill="#FF45DC" d="M95.908,39.316c-0.896-2.874-4.506-4.272-11.038-4.272c-2.384,0-5.079,0.192-7.996,0.552
	c-6.397-8.624-17.748-12.714-28.581-9.338c-10.774,3.359-17.772,13.095-18.2,23.764c-8.879,4.478-15.851,9.681-14.408,14.304
	c0.896,2.875,4.506,4.272,11.038,4.272c2.782,0,5.986-0.259,9.48-0.746c6.54,7.713,17.29,11.203,27.553,8.004
	c10.329-3.22,17.206-12.294,18.137-22.435C90.584,48.99,97.328,43.871,95.908,39.316z M26.723,64.875
	c-5.716,0-7.341-1.196-7.485-1.658c-0.438-1.407,3.234-4.943,11.008-9.103c0.187,1.559,0.498,3.122,0.981,4.673
	c0.628,2.016,1.502,3.882,2.541,5.617C31.184,64.711,28.806,64.875,26.723,64.875z M81.917,49.222
	c-0.141-1.962-0.481-3.936-1.092-5.896c-0.464-1.487-1.07-2.888-1.762-4.226c2.105-0.216,4.061-0.334,5.806-0.334
	c5.716,0,7.341,1.197,7.485,1.658C92.783,41.797,89.304,45.193,81.917,49.222z"/>
</svg>
