<?xml version="1.0" encoding="utf-8"?>
<!-- Generator: Adobe Illustrator 16.0.0, SVG Export Plug-In . SVG Version: 6.00 Build 0)  -->
<!DOCTYPE svg PUBLIC "-//W3C//DTD SVG 1.1//EN" "http://www.w3.org/Graphics/SVG/1.1/DTD/svg11.dtd">
<svg version="1.1" id="Layer_1" xmlns="http://www.w3.org/2000/svg" xmlns:xlink="http://www.w3.org/1999/xlink" x="0px" y="0px"
	 width="109.593px" height="99.159px" viewBox="0 0 109.593 99.159" enable-background="new 0 0 109.593 99.159"
	 xml:space="preserve">
<path fill="#FFFFFF" d="M54.796,14.357c-19.02,0-34.493,15.473-34.493,34.493c0,19.022,15.473,34.495,34.493,34.495
	c19.02,0,34.493-15.473,34.493-34.495C89.289,29.83,73.816,14.357,54.796,14.357z M23.178,48.85
	c0-12.732,7.583-23.701,18.454-28.708c-2.969,3.207-4.8,7.48-4.8,12.183c0,9.904,8.061,17.965,17.965,17.965
	c8.322,0,15.091,6.77,15.091,15.089c0,8.324-6.77,15.094-15.091,15.094C37.363,80.472,23.178,66.282,23.178,48.85z M54.796,37.353
	c-3.17,0-5.749-2.575-5.749-5.748c0-3.175,2.578-5.749,5.749-5.749c3.174,0,5.75,2.573,5.75,5.749
	C60.546,34.778,57.97,37.353,54.796,37.353z M54.796,71.848c-3.17,0-5.749-2.578-5.749-5.75s2.578-5.749,5.749-5.749
	c3.174,0,5.75,2.576,5.75,5.749S57.97,71.848,54.796,71.848z"/>
</svg>
